<svg xmlns="http://www.w3.org/2000/svg" width="30.28" height="20.439" viewBox="0 0 30.28 20.439"><path d="M.072,22.7V5.878q0-.029.088-.555l9.9,8.468L.189,23.281A2.475,2.475,0,0,1,.072,22.7ZM1.386,4.156a1.258,1.258,0,0,1,.5-.088H28.541a1.653,1.653,0,0,1,.526.088l-9.928,8.5L17.825,13.7l-2.6,2.132-2.6-2.132-1.314-1.051ZM1.415,24.42l9.957-9.548L15.226,18l3.854-3.124,9.957,9.548a1.4,1.4,0,0,1-.5.088H1.882a1.322,1.322,0,0,1-.467-.088ZM20.395,13.791l9.869-8.468a1.743,1.743,0,0,1,.088.555V22.7a2.238,2.238,0,0,1-.088.584Z" transform="translate(-0.072 -4.068)" fill="#1f223e"/></svg>