<svg xmlns="http://www.w3.org/2000/svg" width="25.081" height="25.081" viewBox="0 0 25.081 25.081"><path d="M12.541,0C9.134,0,8.708.016,7.371.075A9.247,9.247,0,0,0,4.326.658,6.141,6.141,0,0,0,2.1,2.1,6.119,6.119,0,0,0,.658,4.326,9.22,9.22,0,0,0,.075,7.371C.013,8.708,0,9.134,0,12.541s.016,3.832.075,5.17a9.253,9.253,0,0,0,.583,3.044A6.15,6.15,0,0,0,2.1,22.976a6.132,6.132,0,0,0,2.222,1.446,9.258,9.258,0,0,0,3.044.583c1.338.063,1.763.075,5.17.075s3.832-.016,5.17-.075a9.28,9.28,0,0,0,3.044-.583,6.409,6.409,0,0,0,3.668-3.668,9.253,9.253,0,0,0,.583-3.044c.063-1.338.075-1.763.075-5.17s-.016-3.832-.075-5.17a9.274,9.274,0,0,0-.583-3.044A6.155,6.155,0,0,0,22.976,2.1,6.11,6.11,0,0,0,20.755.658,9.226,9.226,0,0,0,17.71.075C16.373.013,15.947,0,12.541,0Zm0,2.257c3.347,0,3.746.017,5.068.074a6.909,6.909,0,0,1,2.327.434,4.127,4.127,0,0,1,2.381,2.38,6.924,6.924,0,0,1,.432,2.327c.06,1.323.073,1.72.073,5.068s-.016,3.747-.077,5.068a7.057,7.057,0,0,1-.44,2.327,3.982,3.982,0,0,1-.939,1.444,3.912,3.912,0,0,1-1.442.936,6.975,6.975,0,0,1-2.336.432c-1.331.06-1.723.073-5.078.073s-3.748-.016-5.078-.077a7.111,7.111,0,0,1-2.337-.44,3.884,3.884,0,0,1-1.441-.939,3.808,3.808,0,0,1-.941-1.442,7.117,7.117,0,0,1-.439-2.336c-.047-1.317-.064-1.723-.064-5.062s.017-3.748.064-5.08A7.109,7.109,0,0,1,2.713,5.11a3.717,3.717,0,0,1,.941-1.443,3.709,3.709,0,0,1,1.441-.938,6.941,6.941,0,0,1,2.321-.44c1.332-.047,1.724-.063,5.078-.063l.047.031Zm0,3.844a6.44,6.44,0,1,0,6.44,6.44A6.439,6.439,0,0,0,12.541,6.1Zm0,10.62a4.18,4.18,0,1,1,4.18-4.18A4.179,4.179,0,0,1,12.541,16.721Zm8.2-10.874a1.5,1.5,0,1,1-1.5-1.5A1.506,1.506,0,0,1,20.74,5.847Z" transform="translate(0 0)" fill="#1f223e"/></svg>