<svg xmlns="http://www.w3.org/2000/svg" width="26.993" height="26.993" viewBox="0 0 26.993 26.993"><path d="M13.5.563a13.5,13.5,0,1,0,13.5,13.5A13.494,13.494,0,0,0,13.5.563Zm0,5.224a4.789,4.789,0,1,1-4.789,4.789A4.789,4.789,0,0,1,13.5,5.787Zm0,18.721A10.429,10.429,0,0,1,5.524,20.8a6.068,6.068,0,0,1,5.36-3.254,1.332,1.332,0,0,1,.386.06,7.205,7.205,0,0,0,2.226.376,7.178,7.178,0,0,0,2.226-.376,1.332,1.332,0,0,1,.386-.06,6.068,6.068,0,0,1,5.36,3.254A10.429,10.429,0,0,1,13.5,24.508Z" transform="translate(0 -0.563)" fill="#fff"/></svg>